<?xml version="1.0" encoding="UTF-8"?><svg id="Layer_1" xmlns="http://www.w3.org/2000/svg" viewBox="0 0 283.46 124.69"><defs><style>.cls-1{fill:#fff;}</style></defs><polygon class="cls-1" points="83.1 69.65 80.24 66.85 75.87 66.72 74.35 69.37 77.32 72.2 81.64 72.2 83.1 69.65"/><polyline class="cls-1" points="87.25 69.9 83.9 69.9 82.38 72.55 84.5 74.77"/><polyline class="cls-1" points="84.78 66.87 81.81 64 80.49 66.29 83.46 69.12 87.11 69.12"/><polygon class="cls-1" points="81.32 63.53 77.95 60.35 74.21 60.31 72.69 62.96 75.66 65.79 79.98 65.79 81.32 63.53"/><polyline class="cls-1" points="72.07 54.68 71.08 56.4 74.04 59.23 76.81 59.23"/><polygon class="cls-1" points="84.14 75.53 81.99 73.27 77.63 73.14 76.11 75.79 79.08 78.62 82.4 78.62 84.14 75.53"/><polyline class="cls-1" points="81.94 79.63 79.47 79.55 77.95 82.2 79.54 83.92"/><polygon class="cls-1" points="74.34 66.07 72.12 63.9 68.74 63.8 67.56 65.85 69.86 68.04 73.21 68.04 74.34 66.07"/><polygon class="cls-1" points="66.58 62.59 64.37 60.42 60.99 60.32 59.81 62.37 62.11 64.57 65.45 64.57 66.58 62.59"/><polygon class="cls-1" points="72.68 59.59 70.46 57.42 67.08 57.32 65.9 59.37 68.2 61.57 71.55 61.57 72.68 59.59"/><polygon class="cls-1" points="64.83 56.11 62.61 53.94 59.23 53.84 58.05 55.89 60.35 58.09 63.7 58.09 64.83 56.11"/><polygon class="cls-1" points="79.07 41.02 76.59 38.68 73.36 38.73 72.67 40.98 75.13 43.33 78.39 43.37 79.07 41.02"/><polyline class="cls-1" points="70.78 41.06 71.06 41.05 71.94 38.06 71.73 37.93"/><polyline class="cls-1" points="69.03 46.64 72.41 46.68 73.1 44.34 70.48 42.06"/><polygon class="cls-1" points="77.86 34.84 76.9 33.8 73.07 33.8 72.13 36.86 73.07 37.63 77.03 37.69 77.86 34.84"/><polygon class="cls-1" points="85.01 37.74 82.52 35.4 79.3 35.44 78.6 37.7 81.06 40.04 84.32 40.09 85.01 37.74"/><polygon class="cls-1" points="90.95 34.31 90.59 33.98 84.53 33.87 84.54 34.27 87 36.62 90.26 36.66 90.95 34.31"/><polyline class="cls-1" points="78.49 33.78 78.93 34.31 82.93 34.31 83.09 33.81"/><polygon class="cls-1" points="87.11 44.05 84.62 41.71 81.4 41.76 80.7 44.01 83.16 46.35 86.42 46.4 87.11 44.05"/><polygon class="cls-1" points="93.03 40.64 90.54 38.29 87.31 38.34 86.62 40.59 89.08 42.94 92.34 42.98 93.03 40.64"/><polygon class="cls-1" points="100.16 43.75 98.3 42 95.89 42.03 95.37 43.72 97.21 45.47 99.65 45.5 100.16 43.75"/><polygon class="cls-1" points="94.28 47.02 92.42 45.27 90.01 45.3 89.5 46.99 91.33 48.74 93.77 48.77 94.28 47.02"/><polygon class="cls-1" points="88.25 50.36 86.39 48.61 83.98 48.64 83.46 50.33 85.3 52.08 87.73 52.11 88.25 50.36"/><polygon class="cls-1" points="82.4 53.85 80.54 52.1 78.13 52.13 77.61 53.82 79.45 55.57 81.88 55.6 82.4 53.85"/><polygon class="cls-1" points="90.42 56.77 88.56 55.01 86.15 55.05 85.63 56.73 87.47 58.49 89.9 58.52 90.42 56.77"/><polygon class="cls-1" points="97.77 59.92 96.43 58.65 94.69 58.68 94.32 59.89 95.64 61.16 97.4 61.18 97.77 59.92"/><polygon class="cls-1" points="103.83 56.37 102.49 55.11 100.76 55.14 100.38 56.35 101.71 57.61 103.46 57.64 103.83 56.37"/><polyline class="cls-1" points="84.07 61.98 84.58 60.23 82.72 58.47 80.32 58.51"/><polygon class="cls-1" points="96.42 53.43 94.56 51.68 92.15 51.71 91.63 53.4 93.47 55.15 95.91 55.18 96.42 53.43"/><polygon class="cls-1" points="102.36 50.01 100.5 48.25 98.09 48.29 97.57 49.97 99.41 51.73 101.84 51.76 102.36 50.01"/><polyline class="cls-1" points="103.99 45.01 103.47 46.69 105.31 48.45 106.7 48.46 106.82 47.59"/><polyline class="cls-1" points="93.24 35.16 92.49 37.26 94.95 39.6 98.21 39.64"/><polygon class="cls-1" points="81.17 47.42 78.68 45.07 75.46 45.12 74.77 47.38 77.23 49.72 80.49 49.77 81.17 47.42"/><polyline class="cls-1" points="74.53 53.17 75.22 50.82 72.73 48.47 69.51 48.52"/><polygon class="cls-1" points="56.36 52.55 54.64 50.87 52.02 50.79 51.1 52.38 52.89 54.08 55.48 54.08 56.36 52.55"/><polygon class="cls-1" points="50.21 55.55 48.49 53.87 45.87 53.79 44.96 55.38 46.74 57.08 49.33 57.08 50.21 55.55"/><polygon class="cls-1" points="41.66 52 40.5 50.86 38.72 50.81 38.1 51.89 39.31 53.04 41.07 53.04 41.66 52"/><polygon class="cls-1" points="35.6 55.04 34.43 53.9 32.65 53.85 32.03 54.93 33.24 56.08 35.01 56.08 35.6 55.04"/><polyline class="cls-1" points="31.07 49.62 32.84 49.62 33.43 48.58 32.26 47.43"/><polygon class="cls-1" points="37.39 61.51 36.23 60.37 34.45 60.32 33.83 61.4 35.04 62.55 36.8 62.55 37.39 61.51"/><polygon class="cls-1" points="30.42 64.39 29.8 63.79 28.87 63.76 28.54 64.33 29.18 64.94 30.11 64.94 30.42 64.39"/><polygon class="cls-1" points="32.19 70.87 31.58 70.27 30.64 70.24 30.31 70.81 30.95 71.42 31.88 71.42 32.19 70.87"/><polygon class="cls-1" points="33.88 77.25 33.27 76.65 32.33 76.62 32 77.19 32.64 77.8 33.57 77.8 33.88 77.25"/><polygon class="cls-1" points="24.42 67.37 23.8 66.77 22.87 66.74 22.54 67.31 23.18 67.92 24.11 67.92 24.42 67.37"/><polygon class="cls-1" points="28.68 57.91 28.07 57.31 27.13 57.28 26.8 57.85 27.44 58.46 28.37 58.46 28.68 57.91"/><polygon class="cls-1" points="39.03 67.98 37.87 66.84 36.09 66.79 35.47 67.87 36.68 69.02 38.44 69.02 39.03 67.98"/><polygon class="cls-1" points="40.83 74.4 39.66 73.26 37.88 73.21 37.26 74.29 38.47 75.45 40.23 75.45 40.83 74.4"/><polygon class="cls-1" points="42.57 80.83 41.4 79.69 39.63 79.64 39.01 80.72 40.22 81.87 41.98 81.87 42.57 80.83"/><polyline class="cls-1" points="43.62 88.3 44.21 87.26 43.04 86.11 41.26 86.06"/><polygon class="cls-1" points="43.46 58.51 42.29 57.37 40.51 57.32 39.89 58.4 41.1 59.55 42.86 59.55 43.46 58.51"/><polygon class="cls-1" points="45.25 64.89 44.09 63.75 42.31 63.7 41.69 64.78 42.9 65.94 44.66 65.94 45.25 64.89"/><polygon class="cls-1" points="46.87 71.28 45.7 70.14 43.92 70.08 43.3 71.16 44.51 72.32 46.28 72.32 46.87 71.28"/><polygon class="cls-1" points="48.66 77.83 47.5 76.69 45.72 76.64 45.1 77.72 46.31 78.87 48.07 78.87 48.66 77.83"/><polygon class="cls-1" points="50.46 84.34 49.29 83.2 47.51 83.15 46.89 84.23 48.1 85.38 49.86 85.38 50.46 84.34"/><polygon class="cls-1" points="48.25 49.01 46.89 47.56 43.73 47.57 43 48.84 44.78 50.54 47.38 50.54 48.25 49.01"/><polygon class="cls-1" points="51.96 62.1 50.24 60.42 47.61 60.34 46.7 61.94 48.48 63.64 51.08 63.64 51.96 62.1"/><polygon class="cls-1" points="53.7 68.52 51.98 66.83 49.36 66.76 48.45 68.35 50.23 70.05 52.82 70.05 53.7 68.52"/><polygon class="cls-1" points="55.47 74.93 53.75 73.25 51.13 73.17 50.21 74.76 51.99 76.46 54.59 76.46 55.47 74.93"/><polygon class="cls-1" points="58.08 59.06 56.36 57.38 53.74 57.3 52.83 58.89 54.61 60.59 57.21 60.59 58.08 59.06"/><polygon class="cls-1" points="59.76 65.53 58.04 63.85 55.42 63.77 54.51 65.36 56.29 67.06 58.89 67.06 59.76 65.53"/><polygon class="cls-1" points="61.51 71.98 59.79 70.29 57.17 70.22 56.25 71.81 58.04 73.51 60.63 73.51 61.51 71.98"/><polygon class="cls-1" points="57.17 81.42 55.45 79.74 52.83 79.66 51.91 81.25 53.7 82.95 56.29 82.95 57.17 81.42"/><polygon class="cls-1" points="58.87 87.91 57.15 86.23 54.53 86.15 53.62 87.74 54.56 88.99 58.41 88.99 58.87 87.91"/><polygon class="cls-1" points="63.21 78.46 61.49 76.78 58.87 76.71 57.96 78.3 59.74 80 62.33 80 63.21 78.46"/><polygon class="cls-1" points="64.93 84.89 63.21 83.21 60.59 83.13 59.68 84.72 61.46 86.42 64.06 86.42 64.93 84.89"/><polygon class="cls-1" points="62.85 49.63 61.44 48.03 56.75 48.03 56.07 49.42 58.37 51.61 61.72 51.61 62.85 49.63"/><polyline class="cls-1" points="63.86 48.08 64.39 48.59 65.75 48.59 65.27 48.05"/><polygon class="cls-1" points="70.82 53.45 68.2 50.92 65.32 50.83 64.14 52.88 66.44 55.08 69.78 55.08 70.82 53.45"/><polygon class="cls-1" points="68.37 69.07 66.15 66.9 62.77 66.8 61.6 68.85 63.89 71.04 67.24 71.04 68.37 69.07"/><polygon class="cls-1" points="76.06 72.55 73.84 70.38 70.47 70.28 69.29 72.33 71.59 74.52 74.93 74.52 76.06 72.55"/><polygon class="cls-1" points="70 75.55 67.78 73.38 64.4 73.28 63.22 75.33 65.52 77.52 68.87 77.52 70 75.55"/><polygon class="cls-1" points="77.85 79.02 75.63 76.86 72.25 76.76 71.07 78.81 73.37 81 76.72 81 77.85 79.02"/><polygon class="cls-1" points="71.68 81.97 69.47 79.8 66.09 79.7 64.91 81.76 67.21 83.95 70.55 83.95 71.68 81.97"/><polygon class="cls-1" points="73.37 88.4 71.16 86.23 67.78 86.13 66.6 88.18 67.53 89.19 73.11 89.23 73.37 88.4"/><polygon class="cls-1" points="78.95 84.96 77.2 83.34 73.82 83.24 72.64 85.29 74.94 87.48 77.54 87.54 78.95 84.96"/><path class="cls-1" d="m122.39,48.93c1.98,1.3,4.49,1.88,6.12,1.88,1.96,0,3.37-.78,3.37-2.46,0-2.01-2.07-2.28-4.62-2.98-2.75-.78-5.33-1.93-5.33-5.17s2.66-5.26,6.63-5.26c1.9,0,4.19.43,5.85,1.33v3.21c-1.96-1.18-4.27-1.71-5.87-1.71-1.85,0-3.15.68-3.15,2.21,0,1.93,2.07,2.18,4.43,2.86,2.91.83,5.52,2.01,5.52,5.34s-2.77,5.46-6.85,5.46c-1.93,0-4.3-.48-6.09-1.38v-3.33Z"/><path class="cls-1" d="m140.45,48.93c1.98,1.3,4.49,1.88,6.12,1.88,1.96,0,3.37-.78,3.37-2.46,0-2.01-2.07-2.28-4.62-2.98-2.75-.78-5.33-1.93-5.33-5.17s2.66-5.26,6.63-5.26c1.9,0,4.19.43,5.85,1.33v3.21c-1.96-1.18-4.27-1.71-5.87-1.71-1.85,0-3.15.68-3.15,2.21,0,1.93,2.07,2.18,4.43,2.86,2.91.83,5.52,2.01,5.52,5.34s-2.77,5.46-6.85,5.46c-1.93,0-4.3-.48-6.09-1.38v-3.33Z"/><path class="cls-1" d="m163.83,38.05h-6.44v-2.83h16.4v2.83h-6.5v15.32h-3.45v-15.32Z"/><path class="cls-1" d="m175.5,43.04h6.58v2.56h-6.58v-2.56Z"/><path class="cls-1" d="m189.64,39.13l-4.27,1.45v-2.98l7.72-2.66v18.43h-3.45v-14.24Z"/><path class="cls-1" d="m199.4,35.22h3.34l6.42,8.45,6.42-8.45h3.29v18.15h-3.45v-8.98c0-1.38,0-2.68.03-3.94l-.05-.03c-.82,1.15-1.69,2.28-2.61,3.51l-3.7,4.86-3.7-4.86c-.92-1.23-1.79-2.36-2.61-3.51l-.05.03c.03,1.25.03,2.56.03,3.94v8.98h-3.34v-18.15Z"/><path class="cls-1" d="m121.82,72.12c.98.75,2.25,1.07,3.28,1.07,1.48,0,2.57-.69,2.57-2.07,0-1.57-1.42-1.91-2.86-2.29-1.59-.43-3.15-.98-3.15-2.91,0-1.82,1.38-2.85,3.38-2.85,1.04,0,2.25.28,3.11.84v.97c-.93-.65-2.13-.97-3.12-.97-1.44,0-2.43.66-2.43,1.95,0,1.51,1.39,1.82,2.77,2.19,1.58.43,3.24.99,3.24,3.03,0,1.87-1.42,2.95-3.5,2.95-1.1,0-2.37-.31-3.28-.9v-1.01Z"/><path class="cls-1" d="m131.05,64.78c-.38,0-.69-.29-.69-.68s.31-.66.7-.66.69.29.69.68-.31.66-.7.66Zm-.44,1.85h.9v7.23h-.9v-7.23Z"/><path class="cls-1" d="m134.17,66.64h.9v1.01h.03c.75-.65,1.73-1.18,2.89-1.18.84,0,1.48.28,1.93.74.46.47.67,1.09.67,2.16v4.5h-.9v-4.33c0-.87-.14-1.38-.47-1.73-.34-.35-.84-.51-1.41-.51-1.03,0-2,.54-2.74,1.29v5.29h-.9v-7.23Z"/><path class="cls-1" d="m143.63,75.78c.72.44,1.52.69,2.33.69,1.67,0,2.72-.97,2.72-2.59v-.79l-.03-.02c-.58.49-1.42.81-2.36.81-2.05,0-3.61-1.48-3.61-3.6s1.39-3.82,3.81-3.82c.86,0,1.59.24,2.22.56l.87-.15v6.99c0,2.04-1.35,3.39-3.63,3.39-.87,0-1.68-.22-2.33-.56v-.93Zm5.05-7.91c-.54-.34-1.35-.62-2.2-.62-1.76,0-2.88,1.31-2.88,2.97s1.13,2.88,2.82,2.88c.86,0,1.7-.32,2.27-.88v-4.35Z"/><path class="cls-1" d="m152.25,62.64h.9v11.23h-.9v-11.23Z"/><path class="cls-1" d="m156.15,70.49c.15,1.71,1.42,2.76,3.2,2.76,1.01,0,1.84-.35,2.53-.84v.94c-.69.41-1.65.68-2.59.68-2.31,0-4.02-1.53-4.02-3.78s1.68-3.78,3.72-3.78c1.82,0,3.34,1.25,3.34,3.39,0,.22-.02.44-.03.62h-6.14Zm5.28-.72c-.05-1.94-1.47-2.51-2.48-2.51-1.25,0-2.52.84-2.77,2.51h5.25Z"/><path class="cls-1" d="m164.11,69.41h3.57v.76h-3.57v-.76Z"/><path class="cls-1" d="m172.57,67.05c-.55-.76-1.13-1.57-1.65-2.31h-.03c.02.87.02,1.81.02,2.73v6.39h-.9v-10.64h.9l4.3,5.94,4.3-5.94h.9v10.64h-.93v-6.39c0-.93,0-1.87.02-2.72h-.03c-.52.72-1.1,1.53-1.65,2.29l-2.62,3.62-2.62-3.62Z"/><path class="cls-1" d="m183.56,64.78c-.38,0-.69-.29-.69-.68s.31-.66.7-.66.69.29.69.68-.31.66-.7.66Zm-.44,1.85h.9v7.23h-.9v-7.23Z"/><path class="cls-1" d="m186.69,66.64h.9v1.18h.03c.58-.74,1.45-1.25,2.43-1.25.17,0,.31.01.44.04v.84c-.14-.03-.31-.04-.47-.04-1.03,0-1.82.53-2.43,1.41v5.05h-.9v-7.23Z"/><path class="cls-1" d="m192.06,66.64h.9v1.18h.03c.58-.74,1.45-1.25,2.43-1.25.17,0,.31.01.44.04v.84c-.14-.03-.31-.04-.47-.04-1.03,0-1.82.53-2.43,1.41v5.05h-.9v-7.23Z"/><path class="cls-1" d="m200.58,66.47c2.25,0,3.9,1.65,3.9,3.78s-1.65,3.78-3.9,3.78-3.9-1.65-3.9-3.78,1.65-3.78,3.9-3.78Zm0,6.76c1.71,0,3-1.28,3-2.98s-1.29-2.98-3-2.98-3,1.28-3,2.98,1.29,2.98,3,2.98Z"/><path class="cls-1" d="m206.58,66.64h.9v1.18h.03c.58-.74,1.45-1.25,2.43-1.25.17,0,.31.01.44.04v.84c-.14-.03-.31-.04-.47-.04-1.03,0-1.82.53-2.43,1.41v5.05h-.9v-7.23Z"/><path class="cls-1" d="m121.82,86.72c.98.75,2.25,1.07,3.28,1.07,1.48,0,2.57-.69,2.57-2.07,0-1.57-1.42-1.91-2.86-2.29-1.59-.43-3.15-.98-3.15-2.91,0-1.82,1.38-2.85,3.38-2.85,1.04,0,2.25.28,3.11.84v.97c-.93-.65-2.13-.97-3.12-.97-1.44,0-2.43.66-2.43,1.95,0,1.51,1.39,1.82,2.77,2.19,1.58.43,3.24.99,3.24,3.03,0,1.87-1.42,2.95-3.5,2.95-1.1,0-2.37-.31-3.28-.9v-1.01Z"/><path class="cls-1" d="m141.38,84.07c0-.79-.12-1.32-.47-1.69-.32-.34-.83-.5-1.36-.5-1.01,0-1.97.54-2.69,1.26.03.24.05.5.05.78v4.54h-.9v-4.39c0-.84-.11-1.32-.46-1.69-.34-.34-.81-.5-1.38-.5-1.03,0-1.94.56-2.65,1.23v5.35h-.9v-7.23h.9v.98h.03c.73-.63,1.65-1.15,2.79-1.15.96,0,1.91.4,2.33,1.34.93-.85,1.93-1.34,3.05-1.34.8,0,1.47.25,1.93.72.46.47.66,1.07.66,2.13v4.54h-.9v-4.39Z"/><path class="cls-1" d="m149.43,87.73c-.57.47-1.48.9-2.51.9-.64,0-1.29-.15-1.78-.5s-.78-.88-.78-1.56c0-.76.37-1.31.95-1.67.57-.35,1.33-.49,2.07-.49.69,0,1.32.1,1.94.26v-.84c0-.71-.14-1.16-.55-1.51-.35-.29-.87-.46-1.55-.46-.89,0-1.7.28-2.31.71v-.87c.61-.37,1.45-.65,2.4-.65s1.64.22,2.14.63c.5.41.77,1.06.77,1.94v3.13c0,.62.15,1.07.77,1.07.18,0,.35-.04.49-.12v.75c-.17.07-.4.12-.66.12-.64,0-1.15-.29-1.36-.85h-.03Zm-.11-2.37c-.58-.16-1.25-.26-1.87-.26-1.07,0-2.17.32-2.17,1.4,0,.94.84,1.35,1.76,1.35.86,0,1.68-.35,2.28-.85v-1.63Z"/><path class="cls-1" d="m153.01,77.24h.9v11.23h-.9v-11.23Z"/><path class="cls-1" d="m156.58,77.24h.9v11.23h-.9v-11.23Z"/><path class="cls-1" d="m163.59,86.72c.98.75,2.25,1.07,3.28,1.07,1.48,0,2.57-.69,2.57-2.07,0-1.57-1.42-1.91-2.86-2.29-1.59-.43-3.15-.98-3.15-2.91,0-1.82,1.38-2.85,3.38-2.85,1.04,0,2.25.28,3.11.84v.97c-.93-.65-2.13-.97-3.12-.97-1.44,0-2.43.66-2.43,1.95,0,1.51,1.39,1.82,2.77,2.19,1.58.43,3.24.99,3.24,3.03,0,1.87-1.42,2.95-3.5,2.95-1.1,0-2.37-.31-3.28-.9v-1.01Z"/><path class="cls-1" d="m172.82,79.38c-.38,0-.69-.29-.69-.68s.31-.66.7-.66.69.29.69.68-.31.66-.7.66Zm-.44,1.85h.9v7.23h-.9v-7.23Z"/><path class="cls-1" d="m175.01,88.47l-.02-.03,4.79-6.38-.02-.03h-4.48v-.79h6.12l.02.03-4.79,6.38.02.03h4.68v.79h-6.32Z"/><path class="cls-1" d="m183.16,85.09c.15,1.71,1.42,2.76,3.2,2.76,1.01,0,1.84-.35,2.53-.84v.94c-.69.41-1.65.68-2.59.68-2.31,0-4.02-1.53-4.02-3.78s1.68-3.78,3.72-3.78c1.82,0,3.34,1.25,3.34,3.39,0,.22-.02.44-.03.62h-6.14Zm5.28-.72c-.05-1.94-1.47-2.51-2.48-2.51-1.25,0-2.52.84-2.77,2.51h5.25Z"/><path class="cls-1" d="m197.48,78.65h-3.81v-.82h8.56v.82h-3.81v9.82h-.93v-9.82Z"/><path class="cls-1" d="m202.9,85.09c.15,1.71,1.42,2.76,3.2,2.76,1.01,0,1.84-.35,2.53-.84v.94c-.69.41-1.65.68-2.59.68-2.31,0-4.02-1.53-4.02-3.78s1.68-3.78,3.72-3.78c1.82,0,3.34,1.25,3.34,3.39,0,.22-.02.44-.03.62h-6.14Zm5.28-.72c-.05-1.94-1.47-2.51-2.48-2.51-1.25,0-2.52.84-2.77,2.51h5.25Z"/><path class="cls-1" d="m211.22,77.24h.9v11.23h-.9v-11.23Z"/><path class="cls-1" d="m215.13,85.09c.15,1.71,1.42,2.76,3.2,2.76,1.01,0,1.84-.35,2.53-.84v.94c-.69.41-1.65.68-2.59.68-2.31,0-4.02-1.53-4.02-3.78s1.68-3.78,3.72-3.78c1.82,0,3.34,1.25,3.34,3.39,0,.22-.02.44-.03.62h-6.14Zm5.28-.72c-.05-1.94-1.47-2.51-2.48-2.51-1.25,0-2.52.84-2.77,2.51h5.25Z"/><path class="cls-1" d="m223.02,87.07c.81.5,1.85.76,2.85.76,1.27,0,2.08-.43,2.08-1.29,0-1.09-1.25-1.21-2.43-1.38-1.25-.19-2.68-.54-2.68-2.01,0-1.37,1.21-2.07,2.92-2.07.98,0,1.97.24,2.71.62v.91c-.8-.48-1.81-.73-2.74-.73-1.18,0-1.99.4-1.99,1.22,0,1.01,1.22,1.12,2.36,1.29,1.36.21,2.75.56,2.75,2.09,0,1.42-1.21,2.16-3.03,2.16-.99,0-2.04-.22-2.8-.63v-.92Z"/><path class="cls-1" d="m236.54,88.08c-.63.35-1.44.54-2.25.54-2.34,0-3.98-1.6-3.98-3.75s1.71-3.81,4.06-3.81c.78,0,1.48.19,2.05.47v.91c-.64-.38-1.35-.59-2.08-.59-1.87,0-3.12,1.31-3.12,3.01s1.3,2.95,3.12,2.95c.87,0,1.64-.26,2.2-.69v.94Z"/><path class="cls-1" d="m242,81.07c2.25,0,3.9,1.65,3.9,3.78s-1.65,3.78-3.9,3.78-3.9-1.65-3.9-3.78,1.65-3.78,3.9-3.78Zm0,6.76c1.71,0,3-1.28,3-2.98s-1.29-2.98-3-2.98-3,1.28-3,2.98,1.29,2.98,3,2.98Z"/><path class="cls-1" d="m248.91,91.7h-.9v-10.46h.9v.62h.03c.61-.43,1.39-.78,2.37-.78,2.1,0,3.64,1.57,3.64,3.76s-1.61,3.79-3.78,3.79c-.92,0-1.67-.28-2.23-.63l-.03.02v3.69Zm2.27-3.83c1.73,0,2.88-1.25,2.88-2.98s-1.13-3.03-2.86-3.03c-.83,0-1.67.31-2.28.87v4.39c.57.43,1.39.75,2.27.75Z"/><path class="cls-1" d="m257.4,85.09c.15,1.71,1.42,2.76,3.2,2.76,1.01,0,1.84-.35,2.53-.84v.94c-.69.41-1.65.68-2.59.68-2.31,0-4.02-1.53-4.02-3.78s1.68-3.78,3.72-3.78c1.82,0,3.34,1.25,3.34,3.39,0,.22-.02.44-.03.62h-6.14Zm5.28-.72c-.05-1.94-1.47-2.51-2.48-2.51-1.25,0-2.52.84-2.77,2.51h5.25Z"/></svg>